<?xml version="1.0" encoding="utf-8"?>
<!-- Generator: Adobe Illustrator 25.2.0, SVG Export Plug-In . SVG Version: 6.00 Build 0)  -->
<svg version="1.1" id="Livello_1" xmlns="http://www.w3.org/2000/svg" xmlns:xlink="http://www.w3.org/1999/xlink" x="0px" y="0px"
	 viewBox="0 0 512 512" style="enable-background:new 0 0 512 512;" xml:space="preserve">
<style type="text/css">
	.st0{fill:#F9F9F9;stroke:#414141;stroke-miterlimit:10;}
	.st1{fill:#D9D9D9;}
</style>
<path class="st0" d="M481,91.4L481,91.4c-0.7,0-1.3,0-2,0H481z"/>
<path class="st0" d="M479,129.6c0.7,0,1.3,0,2-0.1v0.1H479z"/>
<rect y="0" class="st1" width="512" height="512"/>
<path d="M499.3,110.5c0,9.9-8,18.1-18.3,19c-0.7,0.1-1.3,0.1-2,0.1H31c-11.2,0-20.2-8.6-20.2-19.1s9-19.1,20.2-19.1h448
	c0.7,0,1.3,0,2,0.1C491.3,92.4,499.3,100.6,499.3,110.5z"/>
<path d="M500.2,256c0,9.9-8,18.1-18.3,19c-0.7,0.1-1.3,0.1-2,0.1H32c-11.2,0-20.2-8.6-20.2-19.1s9-19.1,20.2-19.1h448
	c0.7,0,1.3,0,2,0.1C492.2,237.9,500.2,246.1,500.2,256z"/>
<path d="M500.2,401.5c0,9.9-8,18.1-18.3,19c-0.7,0.1-1.3,0.1-2,0.1H32c-11.2,0-20.2-8.6-20.2-19.1s9-19.1,20.2-19.1h448
	c0.7,0,1.3,0,2,0.1C492.2,383.4,500.2,391.6,500.2,401.5z"/>
</svg>
