<?xml version="1.0" encoding="utf-8"?>
<!-- Generator: Adobe Illustrator 25.2.0, SVG Export Plug-In . SVG Version: 6.00 Build 0)  -->
<svg version="1.1" id="Livello_1" xmlns="http://www.w3.org/2000/svg" xmlns:xlink="http://www.w3.org/1999/xlink" x="0px" y="0px"
	 viewBox="0 0 32 32" style="enable-background:new 0 0 32 32;" xml:space="preserve">
<style type="text/css">
	.st0{fill:#FFFFFF;stroke:#333333;stroke-miterlimit:10;}
</style>
<g>
	<path class="st0" d="M20.49,24.19l-2.23,0v-8.3c0-0.12,0.08-0.46,0.25-1.03l-3.57,7.93l-3.06,0.61L8.7,14.86
		c0.17,0.58,0.25,0.92,0.25,1.03v8.3L3,26.18L6.05,9.65l3.86-0.81l3.62,10.77c0.02,0.04,0.05,0.17,0.07,0.38
		c0-0.08,0.02-0.21,0.07-0.38l4-9.8l3.08,1.13L20.49,24.19z"/>
</g>
<g>
	<path class="st0" d="M25.16,8.27L20.47,8.3L22.99,29l-5.2-3.14L17.76,8.38h-5.76l2.44-2.03L30,4L25.16,8.27z"/>
</g>
</svg>
