<?xml version="1.0" encoding="utf-8"?>
<!-- Generator: Adobe Illustrator 25.2.0, SVG Export Plug-In . SVG Version: 6.00 Build 0)  -->
<svg version="1.1" id="Livello_1" xmlns="http://www.w3.org/2000/svg" xmlns:xlink="http://www.w3.org/1999/xlink" x="0px" y="0px"
	 viewBox="0 0 2000 1500" style="enable-background:new 0 0 2000 1500;" xml:space="preserve">
<style type="text/css">
	.st0{fill:#FFFFFF;stroke:#333333;stroke-width:25;stroke-miterlimit:10;}
</style>
<g>
	<path class="st0" d="M1213.9,1003.6l-73.6,1.6l-6-347.4c0-5.7,3-22.5,9-50.4l-125.9,387.9l-107.9,29.6L797.4,607.2
		c6,28.2,9,45,9,50.4v406.5l-209.8,97l107.5-808.9l136-39.7l127.7,527.3c0.8,2.2,1.7,8.3,2.6,18.5c0-4.1,0.8-10.3,2.6-18.5
		l178.7-493.7l70.7,69.4L1213.9,1003.6z"/>
</g>
<g>
	<path class="st0" d="M1398.8,362.3l-165.3,1l89.1,766l-183.5-116.2l-1-646.8h-203l86-75l548.4-87L1398.8,362.3z"/>
</g>
</svg>
